HIERARCHY
ROOT pelvis
{
  OFFSET 0 100 0
  CHANNELS 6 Xposition Yposition Zposition Zrotation Xrotation Yrotation
  JOINT pelvis_right_femur
  {
    OFFSET -10.78128 -3.44521 -0.5502486
    CHANNELS 3 Zrotation Xrotation Yrotation
    JOINT right_femur_tibia
    {
      OFFSET -0.8047443 -44.0398 -0.1307829
      CHANNELS 3 Zrotation Xrotation Yrotation
      JOINT right_tibia_foot
      {
        OFFSET 3.006224 -47.83518 -5
        CHANNELS 3 Zrotation Xrotation Yrotation
        End Site
        {
          OFFSET 0 -5 15
        }
      }
    }
  }
  JOINT pelvis_left_femur
  {
    OFFSET 10.78128 -3.44521 -0.5502486
    CHANNELS 3 Zrotation Xrotation Yrotation
    JOINT left_femur_tibia
    {
      OFFSET 0.8047443 -44.0398 -0.1307829
      CHANNELS 3 Zrotation Xrotation Yrotation
      JOINT left_tibia_foot
      {
        OFFSET -4.370144 -48.10324 -4.275266
        CHANNELS 3 Zrotation Xrotation Yrotation
        End Site
        {
          OFFSET 0 -5 15
        }
      }
    }
  }
  JOINT pelvis_spine1
  {
    OFFSET 0 6.468898 -3.129235
    CHANNELS 3 Zrotation Xrotation Yrotation
    JOINT spine1
    {
      OFFSET 0 23.15396 4.99043
      CHANNELS 3 Zrotation Xrotation Yrotation
      JOINT spine2
      {
        OFFSET 0 20.79997 -5.064912
        CHANNELS 3 Zrotation Xrotation Yrotation
        JOINT neck
        {
          OFFSET 0 14.38658 9.616178
          CHANNELS 3 Zrotation Xrotation Yrotation
          End Site
          {
            OFFSET 0 20 0
          }
        }
      }
      JOINT right_manubrium
      {
        OFFSET -5.722621 16.35077 3.967754
        CHANNELS 3 Zrotation Xrotation Yrotation
        JOINT right_clavicle
        {
          OFFSET -13.16364 1.694482 -4.693211
          CHANNELS 3 Zrotation Xrotation Yrotation
          JOINT right_humerus
          {
            OFFSET -28.5034 -0.3100689 -2.792744
            CHANNELS 3 Zrotation Xrotation Yrotation
            JOINT right_radius
            {
              OFFSET -25.15693 0.02248979 -1.271978
              CHANNELS 3 Zrotation Xrotation Yrotation
              End Site
              {
                OFFSET -15 0 0
              }
            }
          }
        }
      }
      JOINT left_manubrium
      {
        OFFSET 5.722621 16.35077 3.967754
        CHANNELS 3 Zrotation Xrotation Yrotation
        JOINT left_clavicle
        {
          OFFSET 13.16364 1.694482 -4.693211
          CHANNELS 3 Zrotation Xrotation Yrotation
          JOINT left_humerus
          {
            OFFSET 29.39168 -1.063119 -2.237045
            CHANNELS 3 Zrotation Xrotation Yrotation
            JOINT left_radius
            {
              OFFSET 24.59957 -0.9528479 0.9047498
              CHANNELS 3 Zrotation Xrotation Yrotation
              End Site
              {
                OFFSET 15 -0 -0
              }
            }
          }
        }
      }
    }
  }
}
MOTION
Frames: 7
Frame Time: 0.0416666666667
0 103.5113 0 1.352083 -3.717146 0.2004871 1.145912 -10.64042 6.919975 -0 40.33001 -0 -5.878246 -15.66594 -3.735482 -6.440368 12.48021 -24.2903 -0 5.460788 -0 0.5596109 -18.67816 24.14102 -1.132784 -1.443481 3.373352 1.115314 6.492399 -7.78016 1.525219 22.53141 8.570076 5.158418 -23.78001 9.502421 5.416676 -17.80526 9.95215 89.39226 36.75433 -24.091 -0 0 14.50958 -7.681287 9.175263 2.600287 6.637157 -20.97565 -2.021859 -98.90517 42.48677 25.67532 0 0 -25.07937 -9.897904 17.66113 28.02282
0.1168238 103.9527 1.306752 0.6211538 -2.998694 0.2041998 2.612667 -13.68578 8.189922 -0 42.21301 -0 -6.44823 -15.32132 -4.200951 -5.874127 13.17409 -24.99966 -0 6.345329 -0 -0.2091102 -19.71689 24.23664 -1.041071 -1.408547 3.472014 1.036329 6.598084 -7.742253 1.52337 22.47291 8.568843 5.185613 -23.67087 9.449028 5.450422 -17.78046 9.980795 89.35094 36.87203 -24.02887 -0 0 14.47369 -7.944271 9.427546 2.701866 6.698587 -21.07328 -2.018779 -98.70839 42.19476 25.56008 0 0 -25.16616 -9.605941 17.65438 27.78588
0.2768467 103.8634 3.226422 0.2741012 -2.958263 0.2495141 2.700776 -18.17805 4.657546 -0 35.31102 -0 -7.767159 -11.10081 -2.975192 -5.583473 13.35065 -22.26783 -0 5.83677 -0 -0.02586088 -21.14991 21.95085 -1.783449 -1.789196 3.620164 1.519671 6.793427 -7.631777 1.335169 22.75406 7.98392 4.718679 -23.88378 8.991173 6.05532 -17.72856 10.19422 87.64748 36.80852 -22.69803 -0 0 14.65451 -7.520953 8.581697 3.704355 6.142584 -20.51346 -2.254936 -98.20786 40.74625 25.01248 0 0 -23.61786 -7.554027 17.24601 25.16722
0.4437133 103.5662 5.478454 0.0008194289 -1.883485 0.2943287 3.243613 -22.44921 3.732922 -0 30.66916 -0 -7.792774 -9.408785 -2.692955 -5.549278 13.53249 -20.79087 -0 5.746783 -0 0.9123347 -22.07168 21.03714 -1.929198 -1.962458 3.605397 1.683029 6.878001 -7.693709 1.301167 22.80773 7.828667 4.590306 -23.99602 8.926634 6.287379 -17.64238 10.21708 87.46461 36.65766 -22.81469 -0 0 14.59542 -6.914035 8.194636 3.696015 6.112483 -20.51185 -2.327802 -98.21598 40.55905 24.83802 0 0 -23.44078 -6.950146 17.22855 24.52688
0.606839 103.2564 7.814659 -0.3247729 -0.2767074 0.3347749 4.35637 -26.19654 4.65354 -0 28.28193 -0 -7.254675 -9.32484 -2.905598 -5.591166 13.58301 -20.4946 -0 5.981553 -0 2.105986 -22.65625 21.1193 -2.086664 -2.217448 3.315722 1.969836 6.747213 -7.935187 1.312327 22.90408 7.765157 4.477174 -24.33501 9.078248 6.457435 -17.52167 10.12064 87.82515 36.13199 -23.70795 -0 0 14.49473 -5.403256 7.308366 3.11798 6.16534 -20.55023 -2.385132 -98.81792 41.39249 24.92823 0 0 -23.58822 -7.226317 17.39575 24.88875
0.7733435 102.9647 10.2644 -0.736736 1.461021 0.3926717 5.769929 -29.87243 6.004775 -0 26.04151 -0 -6.662214 -9.243853 -3.177322 -5.579862 13.48928 -20.36821 -0 6.553857 -0 3.014282 -23.2533 21.20067 -2.132838 -2.383681 3.16863 2.113686 6.711958 -8.087062 1.326796 22.93489 7.731481 4.419135 -24.51313 9.178223 6.583169 -17.43408 10.05442 88.09745 35.80568 -24.34504 -0 0 14.41783 -4.470453 6.82085 2.728243 6.260283 -20.64733 -2.417961 -99.18628 41.86266 24.97511 0 0 -23.77373 -7.296554 17.52227 25.07248
0.9543074 102.675 12.9422 -1.166099 3.042926 0.5036295 7.169842 -33.07998 7.273009 -0 23.46706 -0 -6.06958 -8.840133 -3.419882 -5.488715 13.30962 -20.15398 -0 7.46193 -0 3.223123 -23.88093 20.88388 -2.073719 -2.404206 3.097462 2.103206 6.676733 -8.14811 1.354724 22.92728 7.777379 4.452188 -24.53821 9.255598 6.558239 -17.4086 10.00242 88.38152 35.68255 -24.71008 -0 0 14.37497 -4.199979 6.719168 2.48107 6.353616 -20.74206 -2.41395 -99.3916 42.22289 25.06551 0 0 -24.00344 -7.599231 17.62237 25.48281
